<svg xmlns="http://www.w3.org/2000/svg" viewBox="0 0 47.9 47.9"><defs><style>.cls-1{fill:#fff;}</style></defs><title>calculate_icon</title><g id="Слой_2" data-name="Слой 2"><g id="Слой_1-2" data-name="Слой 1"><path class="cls-1" d="M0,0V47.9H47.9V0ZM22.4,44.8H3.1V25.5H22.4Zm0-22.4H3.1V3.1H22.4ZM44.8,44.8H25.5V25.5H44.8Zm0-22.4H25.5V3.1H44.8Z"/><path class="cls-1" d="M41.5,12.75A1.56,1.56,0,0,1,40,14.3h-9.6a1.55,1.55,0,1,1,0-3.1H40A1.56,1.56,0,0,1,41.5,12.75Z"/><path class="cls-1" d="M19.1,12.75a1.55,1.55,0,0,1-1.55,1.55H14.3v3.25a1.55,1.55,0,1,1-3.1,0V14.3H8a1.55,1.55,0,1,1,0-3.1H11.2V8a1.55,1.55,0,1,1,3.1,0V11.2h3.25A1.55,1.55,0,0,1,19.1,12.75Z"/><path class="cls-1" d="M41.5,37.55A1.55,1.55,0,0,1,40,39.1h-9.6a1.55,1.55,0,1,1,0-3.1H40A1.56,1.56,0,0,1,41.5,37.55Z"/><path class="cls-1" d="M41.5,32.75A1.55,1.55,0,0,1,40,34.3h-9.6a1.55,1.55,0,1,1,0-3.1H40A1.55,1.55,0,0,1,41.5,32.75Z"/><path class="cls-1" d="M17.85,38.06a1.54,1.54,0,0,1,.45,1.09,1.58,1.58,0,0,1-.45,1.1,1.6,1.6,0,0,1-1.1.45,1.57,1.57,0,0,1-1.1-.46l-2.9-2.9-2.9,2.91a1.62,1.62,0,0,1-2.2,0,1.55,1.55,0,0,1,0-2.18l2.91-2.91-2.91-2.9a1.58,1.58,0,0,1-.45-1.1,1.54,1.54,0,0,1,.45-1.09,1.59,1.59,0,0,1,2.2,0l2.9,2.9,2.9-2.9a1.59,1.59,0,0,1,2.2,0,1.54,1.54,0,0,1,.45,1.09,1.58,1.58,0,0,1-.45,1.1l-2.91,2.9Z"/></g></g></svg>