<svg xmlns="http://www.w3.org/2000/svg" viewBox="0 0 218.37 218.32"><defs><style>.cls-1{fill:#d3d3d3;}</style></defs><title>call2_icon_gray</title><g id="Слой_2" data-name="Слой 2"><g id="Слой_1-2" data-name="Слой 1"><path class="cls-1" style="fill:#888888;" d="M211.68,198.27l-15.54,15.54c-2.77,2.77-10.9,4.5-11.16,4.5A183.31,183.31,0,0,1,0,32.92S1.8,25,4.57,22.26L20.11,6.72C25.79,1,36.72-1.58,44.37,1l3.27,1.09c7.63,2.55,15.64,11,17.75,18.76L73.2,49.53c2.11,7.8-.73,18.88-6.42,24.57L56.41,84.48A110.19,110.19,0,0,0,133.91,162l10.37-10.38c5.71-5.71,16.79-8.55,24.57-6.45L197.54,153c7.77,2.13,16.21,10.09,18.76,17.72l1.09,3.32C219.93,181.69,217.37,192.61,211.68,198.27Z"/></g></g></svg>