<svg xmlns="http://www.w3.org/2000/svg" viewBox="0 0 40 40"><defs><style>.cls-1{fill:#ccc;}.cls-2{fill:#fff;}</style></defs><title>close</title><g id="Слой_2" data-name="Слой 2"><g id="Слой_1-2" data-name="Слой 1"><path class="cls-1" style="fill:cccccc;" d="M40,20A20,20,0,1,1,20,0,20,20,0,0,1,40,20Zm0,0"/><path class="cls-2" style="fill:#ffffff" d="M27.2,28.7a1.5,1.5,0,0,1-1.06-.44L20,22.12l-6.14,6.14a1.5,1.5,0,0,1-2.12-2.12L17.88,20l-6.14-6.14a1.5,1.5,0,0,1,2.12-2.12L20,17.88l6.14-6.14a1.5,1.5,0,0,1,2.12,2.12L22.12,20l6.14,6.14A1.5,1.5,0,0,1,27.2,28.7Z"/></g></g></svg>