<svg xmlns="http://www.w3.org/2000/svg" viewBox="0 0 388.17 388.17"><defs><style>.cls-1{fill:#878888;}</style></defs><title>location_icon</title><g id="Слой_2" data-name="Слой 2"><g id="Слой_1-2" data-name="Слой 1"><path class="cls-1" style="fill:#888888;" d="M237.85,161a43.77,43.77,0,1,1-43.77-43.77A43.81,43.81,0,0,1,237.85,161Z"/><path class="cls-1" style="fill:#888888;" d="M194.09,0C86.9,0,0,86.9,0,194.09S86.9,388.17,194.09,388.17s194.08-86.9,194.08-194.08S301.27,0,194.09,0Zm5.82,311.6a7.85,7.85,0,0,1-11.66,0c-3.31-3.7-81.17-91.1-81.17-150.63a87,87,0,1,1,174,0C281.08,220.5,203.23,307.9,199.91,311.6Z"/></g></g></svg>