<svg xmlns="http://www.w3.org/2000/svg" viewBox="0 0 48.17 53.9"><defs><style>.cls-1{fill:#4eb379;}</style></defs><title>3 icon</title><g id="Слой_2" data-name="Слой 2"><g id="Слой_1-2" data-name="Слой 1"><path class="cls-1" style="fill:#4db479" d="M46.42,53.9H1.75A1.75,1.75,0,0,1,0,52.15V1.75A1.75,1.75,0,0,1,1.75,0H46.42a1.75,1.75,0,0,1,1.75,1.75v50.4A1.75,1.75,0,0,1,46.42,53.9ZM3.5,50.4H44.67V3.5H3.5Z"/><path class="cls-1" d="M35.92,14.88H11.29a1.75,1.75,0,1,1,0-3.5H35.92a1.75,1.75,0,0,1,0,3.5Z"/><path class="cls-1" d="M35.92,24.88H11.29a1.75,1.75,0,1,1,0-3.5H35.92a1.75,1.75,0,0,1,0,3.5Z"/><path class="cls-1" d="M35.92,34.88H11.29a1.75,1.75,0,1,1,0-3.5H35.92a1.75,1.75,0,0,1,0,3.5Z"/><circle class="cls-1" cx="38.03" cy="43.73" r="2.67"/></g></g></svg>