<svg xmlns="http://www.w3.org/2000/svg" viewBox="0 0 52.2 51.4"><defs><style>.cls-1{fill:#4eb379;}</style></defs><title>1 icon</title><g id="Слой_2" data-name="Слой 2"><g id="Слой_1-2" data-name="Слой 1"><path class="cls-1" style="fill:#4db479" d="M52.2,1.7v48a1.7,1.7,0,0,1-1.7,1.7H37.7A1.7,1.7,0,0,1,36,49.7V40.5a1.7,1.7,0,1,1,3.4,0V48h9.4V25H41.7A1.7,1.7,0,0,1,40,23.3V18.9a1.7,1.7,0,0,1,3.4,0v2.7h5.4V3.4H3.4V16.8H16.8V7.7a1.7,1.7,0,0,1,3.4,0V21.6H34.9a1.7,1.7,0,0,1,0,3.4H20.2v1.1a1.7,1.7,0,0,1-3.4,0V20.2H3.4V38.4H16.8V35.7a1.7,1.7,0,0,1,3.4,0v2.7h9.1a1.7,1.7,0,1,1,0,3.4H1.7A1.7,1.7,0,0,1,0,40.1V1.7A1.7,1.7,0,0,1,1.7,0H50.5A1.7,1.7,0,0,1,52.2,1.7Z"/></g></g></svg>