<svg xmlns="http://www.w3.org/2000/svg" viewBox="0 0 66.13 52.46"><defs><style>.cls-1{fill:#4eb379;}</style></defs><title>4 icon</title><g id="Слой_2" data-name="Слой 2"><g id="Слой_1-2" data-name="Слой 1"><path class="cls-1" style="fill:#4db479" d="M58.11,5.88H48.22l-.71-2.52,0-.1A4.31,4.31,0,0,0,43.34,0H22.79a4.21,4.21,0,0,0-4.13,3.22l-.79,2.66H8a8,8,0,0,0-8,8V44.43a8,8,0,0,0,8,8H58.11a8,8,0,0,0,8-8V13.9A8,8,0,0,0,58.11,5.88Zm4.51,38.55a4.52,4.52,0,0,1-4.51,4.52H8a4.53,4.53,0,0,1-4.52-4.52V13.9A4.52,4.52,0,0,1,8,9.39H20.49L22,4.1a.76.76,0,0,1,.74-.6H43.34a.77.77,0,0,1,.74.62l1.48,5.27H58.11a4.51,4.51,0,0,1,4.51,4.51Z"/><path class="cls-1" d="M59.3,15.86A2.82,2.82,0,1,1,56.48,13,2.81,2.81,0,0,1,59.3,15.86Z"/><path class="cls-1" d="M33.07,12A16.42,16.42,0,1,0,49.49,28.45,16.45,16.45,0,0,0,33.07,12Zm0,29.33A12.91,12.91,0,1,1,46,28.45,12.93,12.93,0,0,1,33.07,41.36Z"/></g></g></svg>