<svg xmlns="http://www.w3.org/2000/svg" viewBox="0 0 54 54"><defs><style>.cls-1{fill:#4eb379;}</style></defs><title>2 icon</title><g id="Слой_2" data-name="Слой 2"><g id="Слой_1-2" data-name="Слой 1"><path class="cls-1" style="fill:#4db479" d="M52.38,22.88h-.86V14.26A4.28,4.28,0,0,0,47.3,9.93h-.51V4.33a4.18,4.18,0,0,0-4-4.33h-.23L3.91,9.92H3.85A4.33,4.33,0,0,0,0,14.26V49.67A4.28,4.28,0,0,0,4.22,54H47.3a4.28,4.28,0,0,0,4.33-4.33V40.8h.75A1.55,1.55,0,0,0,54,39.18V24.52A1.63,1.63,0,0,0,52.38,22.88Zm-35.44-13L43,3.16a1.23,1.23,0,0,1,.63,1.17V9.91ZM48.38,49.67a1.14,1.14,0,0,1-1.08,1.19H4.22a1.15,1.15,0,0,1-1.08-1.19V14.26a1.14,1.14,0,0,1,1.08-1.19h43a1.13,1.13,0,0,1,1.08,1.19v8.62H37.6a8.87,8.87,0,0,0-9,9,9,9,0,0,0,9,9H48.38Zm2.36-12H37.6a5.7,5.7,0,0,1,0-11.4H50.74Z"/><path class="cls-1" d="M40.12,32.07a1.62,1.62,0,0,1-1.62,1.62h-1a1.62,1.62,0,0,1-1.62-1.62,1.58,1.58,0,0,1,1.63-1.63h1A1.63,1.63,0,0,1,40.12,32.07Z"/></g></g></svg>